<svg width="20" height="20" viewBox="0 0 20 20" fill="none" xmlns="http://www.w3.org/2000/svg">
<path fill-rule="evenodd" clip-rule="evenodd" d="M17.942 2.05808C18.1094 2.22548 18.1677 2.47308 18.093 2.69767L13.093 17.6976C13.02 17.9164 12.8328 18.0771 12.6055 18.116C12.3784 18.155 12.1482 18.0656 12.0067 17.8838L7.67964 12.3204L2.1163 7.99337C1.93436 7.85185 1.84507 7.62169 1.88399 7.3945C1.9229 7.16732 2.0837 6.97998 2.30237 6.90709L17.3024 1.90709C17.527 1.83223 17.7745 1.89068 17.942 2.05808ZM8.9571 11.9268L12.2764 16.1945L16.5118 3.48823L3.80555 7.72365L8.07321 11.0429L10.8081 8.30808L11.692 9.19197L8.9571 11.9268Z" fill="white"/>
</svg>
