<?xml version="1.0" encoding="UTF-8"?>
<svg width="20" height="20" viewBox="0 0 20 20" fill="none" xmlns="http://www.w3.org/2000/svg">
  <path d="M10 12.5C11.3807 12.5 12.5 11.3807 12.5 10C12.5 8.61929 11.3807 7.5 10 7.5C8.61929 7.5 7.5 8.61929 7.5 10C7.5 11.3807 8.61929 12.5 10 12.5Z" stroke="currentColor" stroke-width="1.5" stroke-miterlimit="10" stroke-linecap="round" stroke-linejoin="round"/>
  <path d="M1.66675 10.7333V9.26667C1.66675 8.4 2.37508 7.68333 3.25008 7.68333C4.75841 7.68333 5.35008 6.61667 4.59175 5.30833C4.14175 4.55833 4.38341 3.58333 5.14175 3.13333L6.58342 2.30833C7.24175 1.90833 8.09175 2.125 8.49175 2.78333L8.57508 2.92501C9.32508 4.23334 10.6751 4.23334 11.4334 2.92501L11.5167 2.78333C11.9167 2.125 12.7667 1.90833 13.4251 2.30833L14.8667 3.13333C15.6251 3.58333 15.8667 4.55833 15.4167 5.30833C14.6584 6.61667 15.2501 7.68333 16.7584 7.68333C17.6251 7.68333 18.3417 8.39167 18.3417 9.26667V10.7333C18.3417 11.6 17.6334 12.3167 16.7584 12.3167C15.2501 12.3167 14.6584 13.3833 15.4167 14.6917C15.8667 15.45 15.6251 16.4167 14.8667 16.8667L13.4251 17.6917C12.7667 18.0917 11.9167 17.875 11.5167 17.2167L11.4334 17.075C10.6834 15.7667 9.33341 15.7667 8.57508 17.075L8.49175 17.2167C8.09175 17.875 7.24175 18.0917 6.58342 17.6917L5.14175 16.8667C4.38341 16.4167 4.14175 15.4417 4.59175 14.6917C5.35008 13.3833 4.75841 12.3167 3.25008 12.3167C2.37508 12.3167 1.66675 11.6 1.66675 10.7333Z" stroke="currentColor" stroke-width="1.5" stroke-miterlimit="10" stroke-linecap="round" stroke-linejoin="round"/>
</svg> 